<svg width="697.390625" height="424.625000" viewBox="0 0 697.391 424.625" fill="none" xmlns="http://www.w3.org/2000/svg" xmlns:xlink="http://www.w3.org/1999/xlink">
	<desc>
			Created with Pixso.
	</desc>
	<defs>
		<clipPath id="clip1_167">
			<rect id="IMAGE" rx="-0.500000" width="656.000000" height="383.000000" transform="translate(20.906250 20.187500)" fill="white" fill-opacity="0"/>
		</clipPath>
		<clipPath id="clip1_170">
			<rect id="IMAGE" rx="-0.500000" width="557.000000" height="258.000000" transform="translate(69.906250 83.187500)" fill="white" fill-opacity="0"/>
		</clipPath>
	</defs>
	<g clip-path="url(#clip1_167)">
		<path id="Vector" d="M167.8 322.84C167.8 382.73 148.84 403.4 94.1 403.4C39.37 403.4 20.4 382.73 20.4 322.84L20.4 26.05L46.72 26.05L46.72 293.16C46.72 318.07 60.41 328.14 94.09 328.14C127.78 328.14 141.47 318.07 141.47 293.16L141.47 26.05L167.8 26.05L167.8 322.84ZM264.29 397.04L190.59 397.04L190.59 321.79L264.29 321.79C303.24 321.79 311.66 311.72 311.66 286.81L311.66 26.05L337.99 26.05L337.99 316.48C337.99 375.85 324.83 397.04 264.29 397.04ZM433.42 397.04L359.73 397.04L359.73 321.79L433.42 321.79C472.37 321.79 480.8 311.72 480.8 286.81L480.8 26.05L507.12 26.05L507.12 316.48C507.11 375.85 493.95 397.04 433.42 397.04ZM603.15 403.4C542.61 403.4 529.46 382.2 529.46 322.84L529.46 100.25C529.46 40.9 542.62 19.7 603.15 19.7C663.69 19.7 676.84 40.9 676.84 100.25L676.84 322.84C676.84 382.2 663.69 403.4 603.15 403.4ZM603.15 94.95C564.2 94.95 555.77 105.02 555.77 129.93L555.77 293.16C555.77 318.07 564.2 328.14 603.15 328.14C642.1 328.14 650.53 318.07 650.53 293.16L650.53 129.94C650.53 105.03 642.1 94.95 603.15 94.95L603.15 94.95Z" fill="#000000" fill-opacity="1.000000" fill-rule="nonzero"/>
	</g>
	<g clip-path="url(#clip1_170)">
		<path id="Vector" d="M623.46 162.13L525.13 162.13C524.83 162.13 524.53 162.06 524.26 161.92C524 161.79 523.76 161.59 523.59 161.35L499.28 128.21C486.7 111.07 475.64 99.37 466.38 93.45C461.61 90.39 455.23 88.09 447.43 86.58C439.8 85.11 430.54 84.37 419.92 84.37L404.18 84.37C402.85 84.37 401.92 85.7 402.39 86.96L402.8 88.02L411.44 111L411.64 111.51C411.78 111.88 412.02 112.19 412.34 112.41C412.66 112.63 413.04 112.75 413.43 112.75L432.35 112.75C447.42 112.75 459 114.34 466.75 117.49C474.38 120.58 482.72 128 491.58 139.55L506.45 159.04C507.42 160.3 506.52 162.12 504.94 162.12L72.91 162.12C72.4 162.12 71.92 162.32 71.56 162.68C71.2 163.04 70.99 163.53 70.99 164.04L70.99 184.83C70.99 185.34 71.2 185.83 71.56 186.19C71.92 186.55 72.4 186.75 72.91 186.75L177.7 186.75C178.18 186.75 178.65 186.93 179 187.26C186.32 194.14 190.03 201.16 190.03 208.12C190.03 216.51 186.42 222.53 179.01 226.57C171.16 230.84 156.9 233.09 136.62 233.28L135.32 233.29C133.88 233.3 132.97 234.84 133.65 236.11L134.27 237.26L145.21 257.67L145.44 258.1C145.61 258.42 145.86 258.68 146.16 258.85C146.47 259.03 146.82 259.12 147.17 259.11L147.66 259.1C160.4 258.76 171.29 256.98 180.07 253.78C180.38 253.66 180.72 253.64 181.05 253.69C181.38 253.75 181.69 253.9 181.95 254.11C186.64 258.03 190.26 262.32 192.72 266.91C195.51 272.09 196.92 277.84 196.92 283.98C196.92 291.83 194.01 297.92 188.02 302.61C181.84 307.45 174.89 309.82 166.77 309.82C158.53 309.82 150.21 306.42 142.06 299.74C133.64 292.85 124.52 281.65 115 266.46L94.45 233.86L94.05 233.22C93.79 232.81 93.38 232.51 92.9 232.39C92.42 232.27 91.91 232.34 91.48 232.58L90.83 232.96L85.16 236.22L84.44 236.6C84.22 236.72 84.02 236.9 83.87 237.1C83.71 237.31 83.6 237.54 83.54 237.79C83.47 238.04 83.46 238.3 83.5 238.56C83.54 238.81 83.63 239.05 83.77 239.27L84.2 239.97L105.15 273.51C121.18 299.11 133.79 315.02 143.72 322.14C153.68 329.3 164.31 332.93 175.3 332.93C187.84 332.93 198.4 329.12 206.71 321.61C215.1 314.03 219.36 304.29 219.36 292.63C219.36 283.47 216.86 274.73 211.94 266.68C207.97 260.2 202.35 254.02 195.19 248.27C194.96 248.09 194.78 247.87 194.66 247.61C194.53 247.35 194.47 247.07 194.46 246.79C194.46 246.5 194.52 246.22 194.65 245.96C194.77 245.7 194.94 245.47 195.17 245.29C198.73 242.35 201.6 238.95 203.75 235.13C206.85 229.6 208.42 223.11 208.42 215.82C208.42 205.83 205.34 197.15 199.23 189.9C198.18 188.66 199.06 186.75 200.68 186.75L454.64 186.75C454.89 186.75 455.14 186.8 455.37 186.89C455.6 186.99 455.82 187.13 455.99 187.31C456.17 187.49 456.31 187.7 456.41 187.93C456.51 188.17 456.55 188.42 456.55 188.67L456.55 211.62C456.55 212.13 456.35 212.61 455.99 212.97C455.63 213.33 455.14 213.54 454.64 213.54L377.34 213.54C375.63 213.54 374.78 215.62 376 216.81L377.36 218.17C394.12 234.66 404.07 245.75 406.95 251.12C409.74 256.32 411.16 260.79 411.16 264.39C411.16 269.07 409.75 272.71 406.86 275.48C403.92 278.3 400.21 279.67 395.48 279.67C388.93 279.67 381.1 275.46 372.26 267.15C365.26 260.57 357.83 249.5 350.16 234.22L350.14 234.18L341.39 215.11L341.18 214.65C341.03 214.32 340.79 214.04 340.48 213.84C340.17 213.64 339.81 213.54 339.45 213.54L266.95 213.54C265.24 213.54 264.4 215.62 265.61 216.81L266.99 218.17C283.74 234.66 293.7 245.75 296.57 251.12C299.37 256.32 300.78 260.79 300.78 264.39C300.78 269.07 299.38 272.71 296.48 275.48C293.54 278.3 289.83 279.67 285.1 279.67C278.55 279.67 270.73 275.46 261.88 267.15C252.78 258.6 243.01 242.51 232.84 219.35L232.48 218.52C232.37 218.27 232.21 218.05 232.01 217.87C231.81 217.69 231.57 217.55 231.31 217.47C231.05 217.39 230.78 217.36 230.51 217.4C230.24 217.43 229.98 217.52 229.74 217.66L228.97 218.11L223.57 221.36L223.01 221.7C222.63 221.93 222.34 222.28 222.2 222.7C222.05 223.11 222.05 223.57 222.2 223.99L222.42 224.59C231.24 249.31 241.55 268.99 253.08 283.07C258.95 290.25 265 295.72 271.07 299.35C277.29 303.07 283.7 304.96 290.11 304.96C300.45 304.96 309.12 301.53 315.88 294.77C322.63 288.01 326.07 279.43 326.07 269.26C326.07 263.7 324.43 257.82 321.21 251.79C319.37 248.34 316.97 244.77 314.05 241.14C313.04 239.89 313.93 238.03 315.53 238.03L336.63 238.03C337.4 238.03 338.1 238.49 338.4 239.21C345.85 257.14 354.27 271.88 363.44 283.08C369.3 290.26 375.36 295.73 381.43 299.36C387.65 303.08 394.06 304.97 400.48 304.97C410.81 304.97 419.48 301.54 426.25 294.78C433.01 288.02 436.43 279.44 436.43 269.27C436.43 263.71 434.8 257.83 431.59 251.81C429.75 248.35 427.34 244.78 424.43 241.14C423.42 239.89 424.31 238.03 425.91 238.03L454.64 238.03C454.89 238.03 455.14 238.08 455.37 238.17C455.6 238.27 455.82 238.41 455.99 238.59C456.17 238.77 456.31 238.98 456.41 239.21C456.51 239.44 456.55 239.69 456.55 239.95L456.55 321.24C456.55 321.72 456.74 322.18 457.06 322.54L457.27 322.77L472.95 339.8L473.19 340.06C473.56 340.45 474.07 340.68 474.6 340.68L481.41 340.68C481.92 340.68 482.41 340.48 482.77 340.12C483.13 339.76 483.33 339.27 483.33 338.76L483.33 188.69C483.33 188.18 483.53 187.69 483.89 187.33C484.25 186.97 484.74 186.77 485.25 186.77L510.5 186.77C511 186.77 511.49 186.97 511.85 187.33C512.21 187.69 512.41 188.18 512.41 188.69L512.41 319.46C512.41 319.92 512.58 320.36 512.88 320.71L513.08 320.94L529.3 339.72L529.53 340C529.89 340.42 530.42 340.66 530.98 340.66L537.1 340.66C537.61 340.66 538.09 340.45 538.45 340.09C538.81 339.73 539.02 339.25 539.02 338.74L539.02 188.67C539.02 188.16 539.22 187.67 539.58 187.31C539.94 186.95 540.43 186.75 540.93 186.75L624.28 186.75C624.78 186.75 625.27 186.55 625.63 186.19C625.99 185.83 626.19 185.34 626.19 184.83L626.19 164.04C626.19 163.53 625.99 163.04 625.63 162.68C625.27 162.32 624.78 162.12 624.28 162.12L623.46 162.13Z" fill="#FFFCF7" fill-opacity="1.000000" fill-rule="nonzero"/>
		<path id="Vector" d="M525.13 162.13C524.83 162.13 524.53 162.06 524.26 161.92C524 161.79 523.76 161.59 523.59 161.35L499.28 128.21C486.7 111.07 475.64 99.37 466.38 93.45C461.61 90.39 455.23 88.09 447.43 86.58C439.8 85.11 430.54 84.37 419.92 84.37L404.18 84.37C402.85 84.37 401.92 85.7 402.39 86.96L402.8 88.02L411.44 111L411.64 111.51C411.78 111.88 412.02 112.19 412.34 112.41C412.66 112.63 413.04 112.75 413.43 112.75L432.35 112.75C447.42 112.75 459 114.34 466.75 117.49C474.38 120.58 482.72 128 491.58 139.55L506.45 159.04C507.42 160.3 506.52 162.12 504.94 162.12L72.91 162.12C72.4 162.12 71.92 162.32 71.56 162.68C71.2 163.04 70.99 163.53 70.99 164.04L70.99 184.83C70.99 185.34 71.2 185.83 71.56 186.19C71.92 186.55 72.4 186.75 72.91 186.75L177.7 186.75C178.18 186.75 178.65 186.93 179 187.26C186.32 194.14 190.03 201.16 190.03 208.12C190.03 216.51 186.42 222.53 179.01 226.57C171.16 230.84 156.9 233.09 136.62 233.28L135.32 233.29C133.88 233.3 132.97 234.84 133.65 236.11L134.27 237.26L145.21 257.67L145.44 258.1C145.61 258.42 145.86 258.68 146.16 258.85C146.47 259.03 146.82 259.12 147.17 259.11L147.66 259.1C160.4 258.76 171.29 256.98 180.07 253.78C180.38 253.66 180.72 253.64 181.05 253.69C181.38 253.75 181.69 253.9 181.95 254.11C186.64 258.03 190.26 262.32 192.72 266.91C195.51 272.09 196.92 277.84 196.92 283.98C196.92 291.83 194.01 297.92 188.02 302.61C181.84 307.45 174.89 309.82 166.77 309.82C158.53 309.82 150.21 306.42 142.06 299.74C133.64 292.85 124.52 281.65 115 266.46L94.45 233.86L94.05 233.22C93.79 232.81 93.38 232.51 92.9 232.39C92.42 232.27 91.91 232.34 91.48 232.58L90.83 232.96L85.16 236.22L84.44 236.6C84.22 236.72 84.02 236.9 83.87 237.1C83.71 237.31 83.6 237.54 83.54 237.79C83.47 238.04 83.46 238.3 83.5 238.56C83.54 238.81 83.63 239.05 83.77 239.27L84.2 239.97L105.15 273.51C121.18 299.11 133.79 315.02 143.72 322.14C153.68 329.3 164.31 332.93 175.3 332.93C187.84 332.93 198.4 329.12 206.71 321.61C215.1 314.03 219.36 304.29 219.36 292.63C219.36 283.47 216.86 274.73 211.94 266.68C207.97 260.2 202.35 254.02 195.19 248.27C194.96 248.09 194.78 247.87 194.66 247.61C194.53 247.35 194.47 247.07 194.46 246.79C194.46 246.5 194.52 246.22 194.65 245.96C194.77 245.7 194.94 245.47 195.17 245.29C198.73 242.35 201.6 238.95 203.75 235.13C206.85 229.6 208.42 223.11 208.42 215.82C208.42 205.83 205.34 197.15 199.23 189.9C198.18 188.66 199.06 186.75 200.68 186.75L454.64 186.75C454.89 186.75 455.14 186.8 455.37 186.89C455.6 186.99 455.82 187.13 455.99 187.31C456.17 187.49 456.31 187.7 456.41 187.93C456.51 188.17 456.55 188.42 456.55 188.67L456.55 211.62C456.55 212.13 456.35 212.61 455.99 212.97C455.63 213.33 455.14 213.54 454.64 213.54L377.34 213.54C375.63 213.54 374.78 215.62 376 216.81L377.36 218.17C394.12 234.66 404.07 245.75 406.95 251.12C409.74 256.32 411.16 260.79 411.16 264.39C411.16 269.07 409.75 272.71 406.86 275.48C403.92 278.3 400.21 279.67 395.48 279.67C388.93 279.67 381.1 275.46 372.26 267.15C365.26 260.57 357.83 249.5 350.16 234.22L350.14 234.18L341.39 215.11L341.18 214.65C341.03 214.32 340.79 214.04 340.48 213.84C340.17 213.64 339.81 213.54 339.45 213.54L266.95 213.54C265.24 213.54 264.4 215.62 265.61 216.81L266.99 218.17C283.74 234.66 293.7 245.75 296.57 251.12C299.37 256.32 300.78 260.79 300.78 264.39C300.78 269.07 299.38 272.71 296.48 275.48C293.54 278.3 289.83 279.67 285.1 279.67C278.55 279.67 270.73 275.46 261.88 267.15C252.78 258.6 243.01 242.51 232.84 219.35L232.48 218.52C232.37 218.27 232.21 218.05 232.01 217.87C231.81 217.69 231.57 217.55 231.31 217.47C231.05 217.39 230.78 217.36 230.51 217.4C230.24 217.43 229.98 217.52 229.74 217.66L228.97 218.11L223.57 221.36L223.01 221.7C222.63 221.93 222.34 222.28 222.2 222.7C222.05 223.11 222.05 223.57 222.2 223.99L222.42 224.59C231.24 249.31 241.55 268.99 253.08 283.07C258.95 290.25 265 295.72 271.07 299.35C277.29 303.07 283.7 304.96 290.11 304.96C300.45 304.96 309.12 301.53 315.88 294.77C322.63 288.01 326.07 279.43 326.07 269.26C326.07 263.7 324.43 257.82 321.21 251.79C319.37 248.34 316.97 244.77 314.05 241.14C313.04 239.89 313.93 238.03 315.53 238.03L336.63 238.03C337.4 238.03 338.1 238.49 338.4 239.21C345.85 257.14 354.27 271.88 363.44 283.08C369.3 290.26 375.36 295.73 381.43 299.36C387.65 303.08 394.06 304.97 400.48 304.97C410.81 304.97 419.48 301.54 426.25 294.78C433.01 288.02 436.43 279.44 436.43 269.27C436.43 263.71 434.8 257.83 431.59 251.81C429.75 248.35 427.34 244.78 424.43 241.14C423.42 239.89 424.31 238.03 425.91 238.03L454.64 238.03C454.89 238.03 455.14 238.08 455.37 238.17C455.6 238.27 455.82 238.41 455.99 238.59C456.17 238.77 456.31 238.98 456.41 239.21C456.51 239.44 456.55 239.69 456.55 239.95L456.55 321.24C456.55 321.72 456.74 322.18 457.06 322.54L457.27 322.77L472.95 339.8L473.19 340.06C473.56 340.45 474.07 340.68 474.6 340.68L481.41 340.68C481.92 340.68 482.41 340.48 482.77 340.12C483.13 339.76 483.33 339.27 483.33 338.76L483.33 188.69C483.33 188.18 483.53 187.69 483.89 187.33C484.25 186.97 484.74 186.77 485.25 186.77L510.5 186.77C511 186.77 511.49 186.97 511.85 187.33C512.21 187.69 512.41 188.18 512.41 188.69L512.41 319.46C512.41 319.92 512.58 320.36 512.88 320.71L513.08 320.94L529.3 339.72L529.53 340C529.89 340.42 530.42 340.66 530.98 340.66L537.1 340.66C537.61 340.66 538.09 340.45 538.45 340.09C538.81 339.73 539.02 339.25 539.02 338.74L539.02 188.67C539.02 188.16 539.22 187.67 539.58 187.31C539.94 186.95 540.43 186.75 540.93 186.75L624.28 186.75C624.78 186.75 625.27 186.55 625.63 186.19C625.99 185.83 626.19 185.34 626.19 184.83L626.19 164.04C626.19 163.53 625.99 163.04 625.63 162.68C625.27 162.32 624.78 162.12 624.28 162.12L623.46 162.13L525.13 162.13Z" stroke="#000000" stroke-opacity="1.000000" stroke-width="2.680599"/>
	</g>
</svg>
